PathFileType	3	(X/Y/Z)	E:\ViconData\BIOM9541 2025\Week 7\Mon0900\MingceV2 Cal 01.trc
DataRate	CameraRate	NumFrames	NumMarkers	Units	OrigDataRate	OrigDataStartFrame	OrigNumFrames
200.0	200.0	10	19	mm	200.0	103	273	
Frame#	Time	C7			CLAV			RBAK			LASI			RASI			LPSI			RPSI			LTHI			LKNE			LTIB			LANK			LHEE			LTOE			RTHI			RKNE			RTIB			RANK			RHEE			RTOE			
		X1	Y1	Z1	X2	Y2	Z2	X3	Y3	Z3	X4	Y4	Z4	X5	Y5	Z5	X6	Y6	Z6	X7	Y7	Z7	X8	Y8	Z8	X9	Y9	Z9	X10	Y10	Z10	X11	Y11	Z11	X12	Y12	Z12	X13	Y13	Z13	X14	Y14	Z14	X15	Y15	Z15	X16	Y16	Z16	X17	Y17	Z17	X18	Y18	Z18	X19	Y19	Z19	
103	0.51	240.74176	1432.7092	-1049.2012	244.42415	1381.9338	-908.86682	83.712112	1411.278	-987.75464	336.16415	943.7663	-804.93463	108.46334	969.5592	-822.85333	268.49625	978.3183	-1020.0073	199.40594	982.92987	-1018.9579	407.50394	669.2785	-872.12238	367.1611	470.87537	-913.20599	377.65683	262.38742	-992.48425	332.44266	79.561745	-957.79248	277.36057	45.273926	-1005.4002	323.07544	43.400963	-819.55725	47.188686	704.88214	-882.97498	95.313087	473.81116	-939.81299	79.046005	367.51648	-1010.3576	125.56587	78.68589	-986.46179	188.13393	49.869152	-1017.1852	98.52227	42.913815	-849.20349
104	0.515	240.72951	1432.7168	-1049.1251	244.37875	1381.986	-908.79297	83.688301	1411.2943	-987.68188	336.14581	943.80817	-804.96326	108.43198	969.59131	-822.89636	268.4805	978.27783	-1020.0256	199.38911	982.90936	-1019.0062	407.46811	669.31799	-872.20807	367.19659	471.03482	-913.1778	377.62515	262.43393	-992.54663	332.40405	79.536415	-957.84747	277.34726	45.210117	-1005.3774	323.0596	43.446667	-819.5351	47.167549	704.85382	-882.98053	95.291695	473.77966	-939.80682	79.007721	367.49802	-1010.326	125.54978	78.593956	-986.4502	188.07635	49.802006	-1017.1638	98.526848	42.924408	-849.25519
105	0.52	240.45007	1432.5115	-1049.3311	244.34442	1381.9681	-908.71368	83.657166	1411.299	-987.62073	336.15659	943.79645	-804.97864	108.44786	969.57343	-822.91876	268.43887	978.33746	-1020.0493	199.35481	982.92407	-1019.0265	407.43845	669.29651	-872.22736	367.21063	471.05725	-913.14001	377.61264	262.41968	-992.50226	332.3519	79.495926	-957.83661	277.33572	45.147232	-1005.2361	323.04272	43.410492	-819.54016	47.092979	704.87573	-882.98529	95.210381	473.79111	-939.80701	78.936401	367.51169	-1010.3741	125.61412	78.70858	-986.47943	188.03328	49.786308	-1017.1213	98.507179	42.919754	-849.21899
106	0.525	240.40884	1432.6276	-1049.257	244.33475	1381.887	-908.67572	83.60183	1411.3092	-987.56879	336.13806	943.73529	-805.01093	108.46249	969.52087	-822.94531	268.39359	978.40588	-1020.0807	199.30719	983.00378	-1019.071	407.51364	669.18018	-872.23303	367.12827	470.85464	-913.19208	377.61697	262.40259	-992.41913	332.34863	79.476425	-957.77844	277.26666	45.236038	-1005.1899	323.03085	43.315773	-819.57367	47.016598	704.89758	-882.96918	95.155899	473.85483	-939.82397	78.900543	367.54535	-1010.3361	125.56428	78.789047	-986.49255	188.00505	49.864975	-1017.1281	98.462471	42.915131	-849.13055
107	0.53	240.58986	1432.9995	-1048.918	244.32196	1381.8419	-908.65198	83.57135	1411.308	-987.50543	336.14444	943.70306	-805.07294	108.43899	969.47809	-822.95807	268.40295	978.46136	-1020.1167	199.29472	983.06567	-1019.1097	407.53491	669.12897	-872.22009	367.0769	470.66202	-913.27887	377.63013	262.39038	-992.35883	332.4017	79.565422	-957.60529	277.27072	45.227924	-1005.0696	323.03497	43.310047	-819.56226	46.981834	704.91748	-883.01172	95.140564	473.86551	-939.86237	78.865555	367.57672	-1010.3352	125.55646	78.83522	-986.46948	188.01436	49.936554	-1017.1041	98.456902	42.902992	-849.10327
108	0.535	240.60028	1433.0437	-1048.8206	244.2722	1381.879	-908.6369	83.578796	1411.3514	-987.44202	336.12482	943.71863	-805.13312	108.45231	969.48914	-823.05432	268.44943	978.49829	-1020.16	199.33698	983.07788	-1019.1564	407.52841	669.17999	-872.24243	367.14551	470.83963	-913.20569	377.65335	262.34305	-992.43512	332.4545	79.562096	-957.63068	277.25238	45.450245	-1005.3392	323.05917	43.304321	-819.57837	46.960922	704.92114	-883.05066	95.158913	473.88293	-939.91467	78.899094	367.54733	-1010.3533	125.50135	78.713371	-986.36749	188.0569	49.928478	-1017.1107	98.479088	42.901077	-849.13733
109	0.54	240.64639	1433.038	-1048.7222	244.26045	1381.9558	-908.61829	83.593376	1411.4071	-987.3833	336.1264	943.77234	-805.21661	108.44218	969.54083	-823.15741	268.49176	978.50983	-1020.2069	199.37997	983.06317	-1019.2186	407.49515	669.28589	-872.31458	367.21323	471.02972	-913.22168	377.68774	262.41278	-992.46539	332.48074	79.636337	-957.68646	277.50031	44.947868	-1004.7606	323.0748	43.354141	-819.63013	47.208233	704.92474	-883.23462	95.166489	473.89066	-939.94348	79.059906	367.534	-1009.7202	125.54694	78.685188	-986.44403	188.09271	49.880215	-1017.1353	98.499123	42.942013	-849.20374
110	0.545	240.65218	1433.0872	-1048.6328	244.23587	1382.0156	-908.61603	83.600426	1411.4542	-987.33435	336.1286	943.81091	-805.29321	108.40019	969.59528	-823.24005	268.50677	978.48285	-1020.2615	199.39618	983.04645	-1019.2716	407.4859	669.31042	-872.43781	367.22797	471.08838	-913.31305	377.67648	262.45789	-992.54968	332.4808	79.638237	-957.77966	277.48886	44.954056	-1004.864	323.09134	43.411148	-819.63806	47.219082	704.92212	-883.28436	95.14566	473.88867	-939.96283	79.050911	367.51962	-1009.7457	125.63582	78.721809	-986.4928	188.11606	49.847012	-1017.1875	98.52298	42.968948	-849.28058
111	0.55	240.64667	1433.1501	-1048.5712	244.23262	1382.0144	-908.54553	83.591293	1411.4952	-987.28333	336.13358	943.80518	-805.32849	108.42955	969.59656	-823.27631	268.52243	978.53107	-1020.3132	199.3849	983.08356	-1019.3176	407.49442	669.30164	-872.47125	367.2301	471.10815	-913.32373	377.67938	262.48169	-992.54614	332.47141	79.611595	-957.77924	277.48825	44.983448	-1004.8893	323.08386	43.417538	-819.59808	47.222939	704.94739	-883.30914	95.143761	473.90445	-939.94977	79.039673	367.52707	-1009.7576	125.65111	78.737724	-986.46924	188.10832	49.869244	-1017.2029	98.528267	42.977238	-849.25079
112	0.555	240.54988	1433.2828	-1048.5349	244.21967	1381.9637	-908.47461	83.560585	1411.4514	-987.22839	336.14874	943.76416	-805.34729	108.45861	969.53833	-823.30334	268.49475	978.58881	-1020.3641	199.33919	983.13184	-1019.3882	407.4866	669.26239	-872.42224	367.19708	471.03326	-913.30835	377.65875	262.42371	-992.50287	332.42545	79.553146	-957.76239	277.38693	45.103748	-1004.9634	323.04361	43.342926	-819.58771	47.080746	704.98322	-883.2749	95.103645	473.91168	-939.93762	78.969528	367.56091	-1009.7303	125.50758	78.700188	-986.47394	188.06207	49.942127	-1017.2211	98.4925	42.946377	-849.15417
